<?xml version="1.0" encoding="utf-8"?>
<!-- Generator: Adobe Illustrator 23.1.0, SVG Export Plug-In . SVG Version: 6.00 Build 0)  -->
<svg version="1.1" id="Layer_1" xmlns="http://www.w3.org/2000/svg" xmlns:xlink="http://www.w3.org/1999/xlink" x="0px" y="0px"
	 viewBox="0 0 566.93 113.39" style="enable-background:new 0 0 566.93 113.39;" xml:space="preserve">
<style type="text/css">
	.st0{fill:#232628;}
	.st1{fill:#E62D39;}
	.st2{opacity:0;}
	.st3{fill:none;}
</style>
<path class="st0" d="M197.88,38.23c-7.62,0-12.58,5.44-14.03,13.79h27.7C210.46,43.8,205.62,38.23,197.88,38.23 M229.21,63.52
	h-45.13c1.81,8.35,7.62,12.7,15.85,12.7c6.17,0,10.65-1.94,15.73-6.65l10.53,9.32c-6.05,7.5-14.76,12.1-26.5,12.1
	c-19.48,0-33.87-13.67-33.87-33.51v-0.24c0-18.51,13.19-33.75,32.06-33.75c21.65,0,31.58,16.82,31.58,35.2v0.24
	C229.45,60.73,229.33,61.82,229.21,63.52"/>
<path class="st0" d="M282.6,53.72c0-8.83-6.9-15-15.85-15c-8.95,0-15.73,6.17-15.73,15v0.24c0,8.95,6.77,15,15.73,15
	c8.95,0,15.85-6.17,15.85-15V53.72z M264.58,109.12c-10.53,0-20.45-2.42-28.67-6.77l6.29-13.79c6.65,3.75,13.31,5.93,21.9,5.93
	c12.58,0,18.51-6.05,18.51-17.66v-3.15c-5.44,6.53-11.37,10.52-21.17,10.52c-15.12,0-28.79-11.01-28.79-30.24v-0.24
	c0-19.36,13.91-30.24,28.79-30.24c10.04,0,15.97,4.24,20.93,9.68v-8.47h18.39v50.21C300.75,99.33,288.65,109.12,264.58,109.12"/>
<path class="st0" d="M347.76,42.75c-12.22,0-19.72,7.38-19.72,22.86v23.95h-18.39V24.72h18.39v13.07
	c3.75-8.95,9.8-14.76,20.69-14.28v19.24H347.76z"/>
<path class="st0" d="M379.91,38.27c-7.62,0-12.58,5.44-14.03,13.79h27.7C392.49,43.84,387.65,38.27,379.91,38.27 M411.24,63.56
	h-45.13c1.82,8.35,7.62,12.7,15.85,12.7c6.17,0,10.65-1.94,15.73-6.65l10.53,9.32c-6.05,7.5-14.76,12.1-26.49,12.1
	c-19.48,0-33.87-13.67-33.87-33.51v-0.24c0-18.51,13.19-33.75,32.06-33.75c21.65,0,31.57,16.82,31.57,35.21v0.24
	C411.49,60.77,411.36,61.86,411.24,63.56"/>
<path class="st0" d="M446.42,38.27c-7.62,0-12.58,5.44-14.03,13.79h27.7C459,43.84,454.16,38.27,446.42,38.27 M477.75,63.56h-45.13
	c1.82,8.35,7.62,12.7,15.85,12.7c6.17,0,10.65-1.94,15.73-6.65l10.52,9.32c-6.05,7.5-14.76,12.1-26.49,12.1
	c-19.48,0-33.87-13.67-33.87-33.51v-0.24c0-18.51,13.19-33.75,32.06-33.75c21.65,0,31.58,16.82,31.58,35.21v0.24
	C477.99,60.77,477.87,61.86,477.75,63.56"/>
<path class="st0" d="M506.97,90.78c-9.07,0-19.24-3.02-27.83-9.8l7.86-12.1c7.02,5.08,14.4,7.74,20.45,7.74
	c5.32,0,7.74-1.94,7.74-4.84v-0.24c0-3.99-6.29-5.32-13.43-7.5c-9.07-2.66-19.36-6.9-19.36-19.48v-0.24
	c0-13.19,10.65-20.57,23.71-20.57c8.23,0,17.18,2.78,24.2,7.5l-7.02,12.7c-6.41-3.75-12.82-6.05-17.54-6.05
	c-4.48,0-6.77,1.94-6.77,4.48v0.24c0,3.63,6.17,5.32,13.19,7.74c9.07,3.02,19.6,7.38,19.6,19.23v0.24
	C531.77,84.24,521,90.78,506.97,90.78"/>
<path class="st0" d="M116.93,4.95H103.5v16.82h13.43c15.24,0,25.53,10.53,25.53,25.53v0.24c0,15-10.28,25.29-25.53,25.29H103.5
	v16.82h13.43c26.62,0,45-18.51,45-42.34v-0.24C161.93,23.21,143.54,4.95,116.93,4.95"/>
<path class="st1" d="M8.11,4.95h52.02v16.33H24.07l-0.97,14.64c3.39-0.85,6.41-1.45,11.13-1.45c16.7,0,29.64,7.99,29.64,27.22
	c0,18.03-12.7,29.4-32.18,29.4c-13.55,0-23.47-4.84-31.7-12.7l11.25-13.43c6.41,5.81,12.7,9.19,20.2,9.19
	c8.71,0,14.15-4.23,14.15-11.86c0-7.38-5.93-11.61-15-11.61c-5.32,0-10.16,1.45-14.16,3.15L5.69,46.68L8.11,4.95z"/>
<polygon class="st1" points="86.14,4.26 98.84,4.26 98.84,89.55 80.45,89.55 80.45,23.13 65.69,26.76 61.82,11.52 "/>
<polygon class="st1" points="550.97,8.19 546.81,8.19 543.73,8.19 539.56,8.19 539.56,11 543.73,11 543.73,21.95 546.81,21.95 
	546.81,11 550.97,11 "/>
<g class="st2">
	<g>
		<defs>
			<path id="SVGID_1_" d="M561.97,18.91L561.97,18.91z"/>
		</defs>
		<clipPath id="SVGID_2_">
			<use xlink:href="#SVGID_1_"  style="overflow:visible;"/>
		</clipPath>
	</g>
</g>
<polygon class="st1" points="565.27,8.19 563.87,8.19 563.58,8.19 560.03,13.78 556.48,8.19 556.16,8.19 555.13,8.19 553.18,8.19 
	553.18,21.95 556.16,21.95 556.16,13.15 556.16,13.15 559.9,18.89 560.16,18.89 563.87,13.15 563.87,21.95 566.93,21.95 
	566.93,8.19 "/>
<rect class="st3" width="566.93" height="113.39"/>
</svg>
