<svg width="20" height="20" viewBox="0 0 20 20" fill="none" xmlns="http://www.w3.org/2000/svg">
<g opacity="0.7">
<mask id="mask0_21_51" style="mask-type:alpha" maskUnits="userSpaceOnUse" x="0" y="0" width="20" height="20">
<rect width="20" height="20" fill="#D9D9D9"/>
</mask>
<g mask="url(#mask0_21_51)">
<path d="M7.646 18.333L7.333 15.708C7.19433 15.6247 7.04167 15.5347 6.875 15.438C6.70833 15.3407 6.55567 15.2503 6.417 15.167L3.979 16.188L1.625 12.125L3.708 10.542V9.45799L1.625 7.87499L3.979 3.81199L6.417 4.83299C6.55567 4.74966 6.70833 4.65966 6.875 4.56299C7.04167 4.46566 7.19433 4.37533 7.333 4.29199L7.646 1.66699H12.354L12.667 4.29199C12.8057 4.37533 12.9583 4.46566 13.125 4.56299C13.2917 4.65966 13.4443 4.74966 13.583 4.83299L16.021 3.81199L18.375 7.87499L16.312 9.45799V10.542L18.375 12.125L16.021 16.188L13.583 15.167C13.4443 15.2503 13.2917 15.3407 13.125 15.438C12.9583 15.5347 12.8057 15.6247 12.667 15.708L12.354 18.333H7.646ZM10 12.979C10.8193 12.979 11.5207 12.6873 12.104 12.104C12.6873 11.5207 12.979 10.8193 12.979 9.99999C12.979 9.18066 12.6873 8.47933 12.104 7.89599C11.5207 7.31266 10.8193 7.02099 10 7.02099C9.18067 7.02099 8.47933 7.31266 7.896 7.89599C7.31267 8.47933 7.021 9.18066 7.021 9.99999C7.021 10.8193 7.31267 11.5207 7.896 12.104C8.47933 12.6873 9.18067 12.979 10 12.979ZM10 11.229C9.66667 11.229 9.37833 11.1077 9.135 10.865C8.89233 10.6217 8.771 10.3333 8.771 9.99999C8.771 9.66666 8.89233 9.37833 9.135 9.13499C9.37833 8.89233 9.66667 8.77099 10 8.77099C10.3333 8.77099 10.6217 8.89233 10.865 9.13499C11.1077 9.37833 11.229 9.66666 11.229 9.99999C11.229 10.3333 11.1077 10.6217 10.865 10.865C10.6217 11.1077 10.3333 11.229 10 11.229ZM9.167 16.583H10.833L11.083 14.417C11.4863 14.3057 11.8753 14.139 12.25 13.917C12.6247 13.6943 12.965 13.4303 13.271 13.125L15.292 13.979L16.125 12.604L14.354 11.25C14.4233 11.0553 14.472 10.854 14.5 10.646C14.528 10.4373 14.542 10.222 14.542 9.99999C14.542 9.80533 14.528 9.60733 14.5 9.40599C14.472 9.20466 14.4303 8.99299 14.375 8.77099L16.146 7.39599L15.312 6.02099L13.292 6.89599C12.972 6.57666 12.628 6.30933 12.26 6.09399C11.892 5.87866 11.5067 5.71533 11.104 5.60399L10.833 3.41699H9.167L8.896 5.60399C8.49333 5.71533 8.108 5.87866 7.74 6.09399C7.372 6.30933 7.035 6.56966 6.729 6.87499L4.708 6.02099L3.875 7.39599L5.625 8.74999C5.56967 8.97199 5.528 9.18733 5.5 9.39599C5.472 9.60399 5.458 9.80533 5.458 9.99999C5.458 10.1947 5.472 10.3927 5.5 10.594C5.528 10.7953 5.56967 11.007 5.625 11.229L3.875 12.604L4.708 13.979L6.729 13.125C7.035 13.4303 7.372 13.6907 7.74 13.906C8.108 14.1213 8.49333 14.2847 8.896 14.396L9.167 16.583Z" fill="white"/>
</g>
</g>
</svg>
