<svg width="20" height="20" viewBox="0 0 20 20" fill="none" xmlns="http://www.w3.org/2000/svg">
<g opacity="0.7">
<mask id="mask0_21_71" style="mask-type:alpha" maskUnits="userSpaceOnUse" x="0" y="0" width="20" height="20">
<rect width="20" height="20" fill="#D9D9D9"/>
</mask>
<g mask="url(#mask0_21_71)">
<path d="M10 12.5C10.6947 12.5 11.285 12.257 11.771 11.771C12.257 11.285 12.5 10.6947 12.5 10C12.5 9.30533 12.257 8.715 11.771 8.229C11.285 7.743 10.6947 7.5 10 7.5C9.30533 7.5 8.715 7.743 8.229 8.229C7.743 8.715 7.5 9.30533 7.5 10C7.5 10.6947 7.743 11.285 8.229 11.771C8.715 12.257 9.30533 12.5 10 12.5ZM10 18C8.90267 18 7.868 17.7917 6.896 17.375C5.924 16.9583 5.07333 16.3853 4.344 15.656C3.61467 14.9267 3.04167 14.076 2.625 13.104C2.20833 12.132 2 11.0973 2 10C2 8.88867 2.20833 7.85033 2.625 6.885C3.04167 5.92033 3.61467 5.07333 4.344 4.344C5.07333 3.61467 5.924 3.04167 6.896 2.625C7.868 2.20833 8.90267 2 10 2C11.1113 2 12.1497 2.20833 13.115 2.625C14.0797 3.04167 14.9267 3.61467 15.656 4.344C16.3853 5.07333 16.9583 5.92033 17.375 6.885C17.7917 7.85033 18 8.88867 18 10C18 11.0973 17.7917 12.132 17.375 13.104C16.9583 14.076 16.3853 14.9267 15.656 15.656C14.9267 16.3853 14.0797 16.9583 13.115 17.375C12.1497 17.7917 11.1113 18 10 18ZM10 16.5C11.8053 16.5 13.34 15.868 14.604 14.604C15.868 13.34 16.5 11.8053 16.5 10C16.5 8.19467 15.868 6.66 14.604 5.396C13.34 4.132 11.8053 3.5 10 3.5C8.19467 3.5 6.66 4.132 5.396 5.396C4.132 6.66 3.5 8.19467 3.5 10C3.5 11.8053 4.132 13.34 5.396 14.604C6.66 15.868 8.19467 16.5 10 16.5Z" fill="white"/>
</g>
</g>
</svg>
