<svg width="12" height="12" viewBox="0 0 12 12" fill="none" xmlns="http://www.w3.org/2000/svg">
<path d="M6 12C4.33333 12 2.91667 11.4167 1.75 10.25C0.583333 9.08333 0 7.66667 0 6C0 4.33333 0.583333 2.91667 1.75 1.75C2.91667 0.583333 4.33333 0 6 0C6.90267 0 7.73933 0.187333 8.51 0.562C9.28133 0.937333 9.94467 1.43733 10.5 2.062V0H12V5H7V3.5H9.729C9.32633 2.88867 8.79867 2.40267 8.146 2.042C7.49333 1.68067 6.778 1.5 6 1.5C4.75 1.5 3.68733 1.93733 2.812 2.812C1.93733 3.68733 1.5 4.75 1.5 6C1.5 7.25 1.93733 8.31267 2.812 9.188C3.68733 10.0627 4.75 10.5 6 10.5C7.16667 10.5 8.16667 10.1147 9 9.344C9.83333 8.57333 10.3127 7.62533 10.438 6.5H11.979C11.8543 8.05533 11.2223 9.361 10.083 10.417C8.94433 11.4723 7.58333 12 6 12Z" fill="white"/>
</svg>
