<svg width="20" height="20" viewBox="0 0 20 20" fill="none" xmlns="http://www.w3.org/2000/svg">
<g opacity="0.7">
<mask id="mask0_21_33" style="mask-type:alpha" maskUnits="userSpaceOnUse" x="0" y="0" width="20" height="20">
<rect width="20" height="20" fill="#D9D9D9"/>
</mask>
<g mask="url(#mask0_21_33)">
<path d="M10 12.25L11.083 9.833L13.5 8.75L11.083 7.667L10 5.25L8.917 7.667L6.5 8.75L8.917 9.833L10 12.25ZM3.5 14.5C3.08333 14.5 2.72933 14.354 2.438 14.062C2.146 13.7707 2 13.4167 2 13V4.5C2 4.08333 2.146 3.72933 2.438 3.438C2.72933 3.146 3.08333 3 3.5 3H16.5C16.9167 3 17.2707 3.146 17.562 3.438C17.854 3.72933 18 4.08333 18 4.5V13C18 13.4167 17.854 13.7707 17.562 14.062C17.2707 14.354 16.9167 14.5 16.5 14.5H3.5ZM3.5 13H16.5V4.5H3.5V13ZM1.75 17C1.542 17 1.365 16.927 1.219 16.781C1.073 16.635 1 16.458 1 16.25C1 16.042 1.073 15.865 1.219 15.719C1.365 15.573 1.542 15.5 1.75 15.5H18.25C18.458 15.5 18.635 15.573 18.781 15.719C18.927 15.865 19 16.042 19 16.25C19 16.458 18.927 16.635 18.781 16.781C18.635 16.927 18.458 17 18.25 17H1.75Z" fill="white"/>
</g>
</g>
</svg>
